<?xml version="1.0" encoding="UTF-8"?>
<svg xmlns="http://www.w3.org/2000/svg" version="1.1" viewBox="0 0 1130 710" width="1130" height="710">
  <rect width="1130" height="710" fill="#FFFFFF"/>
  <path fill="#000000" d="M110 0h10v640h-10zM130 0h10v640h-10zM170 0h10v640h-10zM190 0h20v640h-20zM220 0h10v640h-10zM250 0h30v640h-30zM290 0h20v640h-20zM330 0h20v640h-20zM370 0h10v640h-10zM400 0h20v640h-20zM430 0h40v640h-40zM480 0h10v640h-10zM510 0h30v640h-30zM550 0h10v640h-10zM570 0h10v640h-10zM590 0h10v640h-10zM610 0h20v640h-20zM650 0h20v640h-20zM680 0h20v640h-20zM710 0h20v640h-20zM750 0h10v640h-10zM800 0h10v640h-10zM820 0h10v640h-10zM840 0h30v640h-30zM890 0h10v640h-10zM920 0h30v640h-30zM960 0h10v640h-10zM1000 0h10v640h-10zM1030 0h10v640h-10zM1050 0h10v640h-10zM110 640h10v50h-10zM130 640h10v50h-10zM570 640h10v50h-10zM590 640h10v50h-10zM1030 640h10v50h-10zM1050 640h10v50h-10z"/>
  <text x="580" y="705" text-anchor="middle" font-family="Arial, sans-serif" font-size="15.0" fill="#000000">5901234123457</text>
</svg>