<?xml version="1.0" encoding="UTF-8"?>
<svg xmlns="http://www.w3.org/2000/svg" version="1.1" viewBox="0 0 370 370" width="370" height="370">
  <rect width="370" height="370" fill="#FFFFFF"/>
  <rect x="40" y="40" width="10" height="10" fill="#000000" rx="1.5" ry="1.5"/>
  <rect x="50" y="40" width="10" height="10" fill="#000000" rx="1.5" ry="1.5"/>
  <rect x="60" y="40" width="10" height="10" fill="#000000" rx="1.5" ry="1.5"/>
  <rect x="70" y="40" width="10" height="10" fill="#000000" rx="1.5" ry="1.5"/>
  <rect x="80" y="40" width="10" height="10" fill="#000000" rx="1.5" ry="1.5"/>
  <rect x="90" y="40" width="10" height="10" fill="#000000" rx="1.5" ry="1.5"/>
  <rect x="100" y="40" width="10" height="10" fill="#000000" rx="1.5" ry="1.5"/>
  <circle cx="145" cy="45" r="4.0" fill="#000000"/>
  <circle cx="185" cy="45" r="4.0" fill="#000000"/>
  <circle cx="195" cy="45" r="4.0" fill="#000000"/>
  <circle cx="205" cy="45" r="4.0" fill="#000000"/>
  <circle cx="215" cy="45" r="4.0" fill="#000000"/>
  <circle cx="235" cy="45" r="4.0" fill="#000000"/>
  <circle cx="245" cy="45" r="4.0" fill="#000000"/>
  <rect x="260" y="40" width="10" height="10" fill="#000000" rx="1.5" ry="1.5"/>
  <rect x="270" y="40" width="10" height="10" fill="#000000" rx="1.5" ry="1.5"/>
  <rect x="280" y="40" width="10" height="10" fill="#000000" rx="1.5" ry="1.5"/>
  <rect x="290" y="40" width="10" height="10" fill="#000000" rx="1.5" ry="1.5"/>
  <rect x="300" y="40" width="10" height="10" fill="#000000" rx="1.5" ry="1.5"/>
  <rect x="310" y="40" width="10" height="10" fill="#000000" rx="1.5" ry="1.5"/>
  <rect x="320" y="40" width="10" height="10" fill="#000000" rx="1.5" ry="1.5"/>
  <rect x="40" y="50" width="10" height="10" fill="#000000" rx="1.5" ry="1.5"/>
  <rect x="100" y="50" width="10" height="10" fill="#000000" rx="1.5" ry="1.5"/>
  <circle cx="145" cy="55" r="4.0" fill="#000000"/>
  <circle cx="165" cy="55" r="4.0" fill="#000000"/>
  <circle cx="195" cy="55" r="4.0" fill="#000000"/>
  <circle cx="205" cy="55" r="4.0" fill="#000000"/>
  <circle cx="215" cy="55" r="4.0" fill="#000000"/>
  <circle cx="225" cy="55" r="4.0" fill="#000000"/>
  <circle cx="245" cy="55" r="4.0" fill="#000000"/>
  <rect x="260" y="50" width="10" height="10" fill="#000000" rx="1.5" ry="1.5"/>
  <rect x="320" y="50" width="10" height="10" fill="#000000" rx="1.5" ry="1.5"/>
  <rect x="40" y="60" width="10" height="10" fill="#000000" rx="1.5" ry="1.5"/>
  <rect x="60" y="60" width="10" height="10" fill="#000000" rx="1.5" ry="1.5"/>
  <rect x="70" y="60" width="10" height="10" fill="#000000" rx="1.5" ry="1.5"/>
  <rect x="80" y="60" width="10" height="10" fill="#000000" rx="1.5" ry="1.5"/>
  <rect x="100" y="60" width="10" height="10" fill="#000000" rx="1.5" ry="1.5"/>
  <circle cx="125" cy="65" r="4.0" fill="#000000"/>
  <circle cx="135" cy="65" r="4.0" fill="#000000"/>
  <circle cx="155" cy="65" r="4.0" fill="#000000"/>
  <circle cx="165" cy="65" r="4.0" fill="#000000"/>
  <circle cx="195" cy="65" r="4.0" fill="#000000"/>
  <circle cx="205" cy="65" r="4.0" fill="#000000"/>
  <circle cx="225" cy="65" r="4.0" fill="#000000"/>
  <rect x="260" y="60" width="10" height="10" fill="#000000" rx="1.5" ry="1.5"/>
  <rect x="280" y="60" width="10" height="10" fill="#000000" rx="1.5" ry="1.5"/>
  <rect x="290" y="60" width="10" height="10" fill="#000000" rx="1.5" ry="1.5"/>
  <rect x="300" y="60" width="10" height="10" fill="#000000" rx="1.5" ry="1.5"/>
  <rect x="320" y="60" width="10" height="10" fill="#000000" rx="1.5" ry="1.5"/>
  <rect x="40" y="70" width="10" height="10" fill="#000000" rx="1.5" ry="1.5"/>
  <rect x="60" y="70" width="10" height="10" fill="#000000" rx="1.5" ry="1.5"/>
  <rect x="70" y="70" width="10" height="10" fill="#000000" rx="1.5" ry="1.5"/>
  <rect x="80" y="70" width="10" height="10" fill="#000000" rx="1.5" ry="1.5"/>
  <rect x="100" y="70" width="10" height="10" fill="#000000" rx="1.5" ry="1.5"/>
  <circle cx="125" cy="75" r="4.0" fill="#000000"/>
  <circle cx="135" cy="75" r="4.0" fill="#000000"/>
  <circle cx="185" cy="75" r="4.0" fill="#000000"/>
  <circle cx="195" cy="75" r="4.0" fill="#000000"/>
  <circle cx="215" cy="75" r="4.0" fill="#000000"/>
  <rect x="260" y="70" width="10" height="10" fill="#000000" rx="1.5" ry="1.5"/>
  <rect x="280" y="70" width="10" height="10" fill="#000000" rx="1.5" ry="1.5"/>
  <rect x="290" y="70" width="10" height="10" fill="#000000" rx="1.5" ry="1.5"/>
  <rect x="300" y="70" width="10" height="10" fill="#000000" rx="1.5" ry="1.5"/>
  <rect x="320" y="70" width="10" height="10" fill="#000000" rx="1.5" ry="1.5"/>
  <rect x="40" y="80" width="10" height="10" fill="#000000" rx="1.5" ry="1.5"/>
  <rect x="60" y="80" width="10" height="10" fill="#000000" rx="1.5" ry="1.5"/>
  <rect x="70" y="80" width="10" height="10" fill="#000000" rx="1.5" ry="1.5"/>
  <rect x="80" y="80" width="10" height="10" fill="#000000" rx="1.5" ry="1.5"/>
  <rect x="100" y="80" width="10" height="10" fill="#000000" rx="1.5" ry="1.5"/>
  <circle cx="125" cy="85" r="4.0" fill="#000000"/>
  <circle cx="145" cy="85" r="4.0" fill="#000000"/>
  <circle cx="155" cy="85" r="4.0" fill="#000000"/>
  <circle cx="175" cy="85" r="4.0" fill="#000000"/>
  <circle cx="205" cy="85" r="4.0" fill="#000000"/>
  <circle cx="215" cy="85" r="4.0" fill="#000000"/>
  <circle cx="235" cy="85" r="4.0" fill="#000000"/>
  <circle cx="245" cy="85" r="4.0" fill="#000000"/>
  <rect x="260" y="80" width="10" height="10" fill="#000000" rx="1.5" ry="1.5"/>
  <rect x="280" y="80" width="10" height="10" fill="#000000" rx="1.5" ry="1.5"/>
  <rect x="290" y="80" width="10" height="10" fill="#000000" rx="1.5" ry="1.5"/>
  <rect x="300" y="80" width="10" height="10" fill="#000000" rx="1.5" ry="1.5"/>
  <rect x="320" y="80" width="10" height="10" fill="#000000" rx="1.5" ry="1.5"/>
  <rect x="40" y="90" width="10" height="10" fill="#000000" rx="1.5" ry="1.5"/>
  <rect x="100" y="90" width="10" height="10" fill="#000000" rx="1.5" ry="1.5"/>
  <circle cx="125" cy="95" r="4.0" fill="#000000"/>
  <circle cx="145" cy="95" r="4.0" fill="#000000"/>
  <circle cx="165" cy="95" r="4.0" fill="#000000"/>
  <circle cx="195" cy="95" r="4.0" fill="#000000"/>
  <circle cx="205" cy="95" r="4.0" fill="#000000"/>
  <circle cx="225" cy="95" r="4.0" fill="#000000"/>
  <rect x="260" y="90" width="10" height="10" fill="#000000" rx="1.5" ry="1.5"/>
  <rect x="320" y="90" width="10" height="10" fill="#000000" rx="1.5" ry="1.5"/>
  <rect x="40" y="100" width="10" height="10" fill="#000000" rx="1.5" ry="1.5"/>
  <rect x="50" y="100" width="10" height="10" fill="#000000" rx="1.5" ry="1.5"/>
  <rect x="60" y="100" width="10" height="10" fill="#000000" rx="1.5" ry="1.5"/>
  <rect x="70" y="100" width="10" height="10" fill="#000000" rx="1.5" ry="1.5"/>
  <rect x="80" y="100" width="10" height="10" fill="#000000" rx="1.5" ry="1.5"/>
  <rect x="90" y="100" width="10" height="10" fill="#000000" rx="1.5" ry="1.5"/>
  <rect x="100" y="100" width="10" height="10" fill="#000000" rx="1.5" ry="1.5"/>
  <circle cx="125" cy="105" r="4.0" fill="#000000"/>
  <circle cx="145" cy="105" r="4.0" fill="#000000"/>
  <circle cx="165" cy="105" r="4.0" fill="#000000"/>
  <circle cx="185" cy="105" r="4.0" fill="#000000"/>
  <circle cx="205" cy="105" r="4.0" fill="#000000"/>
  <circle cx="225" cy="105" r="4.0" fill="#000000"/>
  <circle cx="245" cy="105" r="4.0" fill="#000000"/>
  <rect x="260" y="100" width="10" height="10" fill="#000000" rx="1.5" ry="1.5"/>
  <rect x="270" y="100" width="10" height="10" fill="#000000" rx="1.5" ry="1.5"/>
  <rect x="280" y="100" width="10" height="10" fill="#000000" rx="1.5" ry="1.5"/>
  <rect x="290" y="100" width="10" height="10" fill="#000000" rx="1.5" ry="1.5"/>
  <rect x="300" y="100" width="10" height="10" fill="#000000" rx="1.5" ry="1.5"/>
  <rect x="310" y="100" width="10" height="10" fill="#000000" rx="1.5" ry="1.5"/>
  <rect x="320" y="100" width="10" height="10" fill="#000000" rx="1.5" ry="1.5"/>
  <circle cx="125" cy="115" r="4.0" fill="#000000"/>
  <circle cx="195" cy="115" r="4.0" fill="#000000"/>
  <circle cx="205" cy="115" r="4.0" fill="#000000"/>
  <circle cx="235" cy="115" r="4.0" fill="#000000"/>
  <circle cx="45" cy="125" r="4.0" fill="#000000"/>
  <circle cx="65" cy="125" r="4.0" fill="#000000"/>
  <circle cx="75" cy="125" r="4.0" fill="#000000"/>
  <circle cx="85" cy="125" r="4.0" fill="#000000"/>
  <circle cx="95" cy="125" r="4.0" fill="#000000"/>
  <circle cx="105" cy="125" r="4.0" fill="#000000"/>
  <circle cx="145" cy="125" r="4.0" fill="#000000"/>
  <circle cx="165" cy="125" r="4.0" fill="#000000"/>
  <circle cx="185" cy="125" r="4.0" fill="#000000"/>
  <circle cx="215" cy="125" r="4.0" fill="#000000"/>
  <circle cx="225" cy="125" r="4.0" fill="#000000"/>
  <circle cx="245" cy="125" r="4.0" fill="#000000"/>
  <circle cx="265" cy="125" r="4.0" fill="#000000"/>
  <circle cx="275" cy="125" r="4.0" fill="#000000"/>
  <circle cx="285" cy="125" r="4.0" fill="#000000"/>
  <circle cx="295" cy="125" r="4.0" fill="#000000"/>
  <circle cx="305" cy="125" r="4.0" fill="#000000"/>
  <circle cx="55" cy="135" r="4.0" fill="#000000"/>
  <circle cx="65" cy="135" r="4.0" fill="#000000"/>
  <circle cx="95" cy="135" r="4.0" fill="#000000"/>
  <circle cx="125" cy="135" r="4.0" fill="#000000"/>
  <circle cx="135" cy="135" r="4.0" fill="#000000"/>
  <circle cx="165" cy="135" r="4.0" fill="#000000"/>
  <circle cx="185" cy="135" r="4.0" fill="#000000"/>
  <circle cx="195" cy="135" r="4.0" fill="#000000"/>
  <circle cx="205" cy="135" r="4.0" fill="#000000"/>
  <circle cx="215" cy="135" r="4.0" fill="#000000"/>
  <circle cx="225" cy="135" r="4.0" fill="#000000"/>
  <circle cx="235" cy="135" r="4.0" fill="#000000"/>
  <circle cx="245" cy="135" r="4.0" fill="#000000"/>
  <circle cx="265" cy="135" r="4.0" fill="#000000"/>
  <circle cx="275" cy="135" r="4.0" fill="#000000"/>
  <circle cx="285" cy="135" r="4.0" fill="#000000"/>
  <circle cx="325" cy="135" r="4.0" fill="#000000"/>
  <circle cx="45" cy="145" r="4.0" fill="#000000"/>
  <circle cx="55" cy="145" r="4.0" fill="#000000"/>
  <circle cx="65" cy="145" r="4.0" fill="#000000"/>
  <circle cx="75" cy="145" r="4.0" fill="#000000"/>
  <circle cx="95" cy="145" r="4.0" fill="#000000"/>
  <circle cx="105" cy="145" r="4.0" fill="#000000"/>
  <circle cx="135" cy="145" r="4.0" fill="#000000"/>
  <circle cx="145" cy="145" r="4.0" fill="#000000"/>
  <circle cx="155" cy="145" r="4.0" fill="#000000"/>
  <circle cx="165" cy="145" r="4.0" fill="#000000"/>
  <circle cx="195" cy="145" r="4.0" fill="#000000"/>
  <circle cx="245" cy="145" r="4.0" fill="#000000"/>
  <circle cx="285" cy="145" r="4.0" fill="#000000"/>
  <circle cx="75" cy="155" r="4.0" fill="#000000"/>
  <circle cx="85" cy="155" r="4.0" fill="#000000"/>
  <circle cx="95" cy="155" r="4.0" fill="#000000"/>
  <circle cx="115" cy="155" r="4.0" fill="#000000"/>
  <circle cx="145" cy="155" r="4.0" fill="#000000"/>
  <circle cx="155" cy="155" r="4.0" fill="#000000"/>
  <circle cx="205" cy="155" r="4.0" fill="#000000"/>
  <circle cx="235" cy="155" r="4.0" fill="#000000"/>
  <circle cx="295" cy="155" r="4.0" fill="#000000"/>
  <circle cx="315" cy="155" r="4.0" fill="#000000"/>
  <circle cx="45" cy="165" r="4.0" fill="#000000"/>
  <circle cx="55" cy="165" r="4.0" fill="#000000"/>
  <circle cx="75" cy="165" r="4.0" fill="#000000"/>
  <circle cx="105" cy="165" r="4.0" fill="#000000"/>
  <circle cx="115" cy="165" r="4.0" fill="#000000"/>
  <circle cx="125" cy="165" r="4.0" fill="#000000"/>
  <circle cx="145" cy="165" r="4.0" fill="#000000"/>
  <circle cx="215" cy="165" r="4.0" fill="#000000"/>
  <circle cx="295" cy="165" r="4.0" fill="#000000"/>
  <circle cx="305" cy="165" r="4.0" fill="#000000"/>
  <circle cx="45" cy="175" r="4.0" fill="#000000"/>
  <circle cx="55" cy="175" r="4.0" fill="#000000"/>
  <circle cx="75" cy="175" r="4.0" fill="#000000"/>
  <circle cx="85" cy="175" r="4.0" fill="#000000"/>
  <circle cx="115" cy="175" r="4.0" fill="#000000"/>
  <circle cx="135" cy="175" r="4.0" fill="#000000"/>
  <circle cx="145" cy="175" r="4.0" fill="#000000"/>
  <circle cx="155" cy="175" r="4.0" fill="#000000"/>
  <circle cx="175" cy="175" r="4.0" fill="#000000"/>
  <circle cx="205" cy="175" r="4.0" fill="#000000"/>
  <circle cx="225" cy="175" r="4.0" fill="#000000"/>
  <circle cx="235" cy="175" r="4.0" fill="#000000"/>
  <circle cx="245" cy="175" r="4.0" fill="#000000"/>
  <circle cx="255" cy="175" r="4.0" fill="#000000"/>
  <circle cx="265" cy="175" r="4.0" fill="#000000"/>
  <circle cx="275" cy="175" r="4.0" fill="#000000"/>
  <circle cx="285" cy="175" r="4.0" fill="#000000"/>
  <circle cx="325" cy="175" r="4.0" fill="#000000"/>
  <circle cx="55" cy="185" r="4.0" fill="#000000"/>
  <circle cx="65" cy="185" r="4.0" fill="#000000"/>
  <circle cx="95" cy="185" r="4.0" fill="#000000"/>
  <circle cx="105" cy="185" r="4.0" fill="#000000"/>
  <circle cx="115" cy="185" r="4.0" fill="#000000"/>
  <circle cx="145" cy="185" r="4.0" fill="#000000"/>
  <circle cx="165" cy="185" r="4.0" fill="#000000"/>
  <circle cx="175" cy="185" r="4.0" fill="#000000"/>
  <circle cx="185" cy="185" r="4.0" fill="#000000"/>
  <circle cx="195" cy="185" r="4.0" fill="#000000"/>
  <circle cx="205" cy="185" r="4.0" fill="#000000"/>
  <circle cx="215" cy="185" r="4.0" fill="#000000"/>
  <circle cx="245" cy="185" r="4.0" fill="#000000"/>
  <circle cx="255" cy="185" r="4.0" fill="#000000"/>
  <circle cx="285" cy="185" r="4.0" fill="#000000"/>
  <circle cx="295" cy="185" r="4.0" fill="#000000"/>
  <circle cx="305" cy="185" r="4.0" fill="#000000"/>
  <circle cx="55" cy="195" r="4.0" fill="#000000"/>
  <circle cx="75" cy="195" r="4.0" fill="#000000"/>
  <circle cx="145" cy="195" r="4.0" fill="#000000"/>
  <circle cx="175" cy="195" r="4.0" fill="#000000"/>
  <circle cx="195" cy="195" r="4.0" fill="#000000"/>
  <circle cx="235" cy="195" r="4.0" fill="#000000"/>
  <circle cx="245" cy="195" r="4.0" fill="#000000"/>
  <circle cx="255" cy="195" r="4.0" fill="#000000"/>
  <circle cx="265" cy="195" r="4.0" fill="#000000"/>
  <circle cx="275" cy="195" r="4.0" fill="#000000"/>
  <circle cx="285" cy="195" r="4.0" fill="#000000"/>
  <circle cx="315" cy="195" r="4.0" fill="#000000"/>
  <circle cx="45" cy="205" r="4.0" fill="#000000"/>
  <circle cx="65" cy="205" r="4.0" fill="#000000"/>
  <circle cx="95" cy="205" r="4.0" fill="#000000"/>
  <circle cx="105" cy="205" r="4.0" fill="#000000"/>
  <circle cx="115" cy="205" r="4.0" fill="#000000"/>
  <circle cx="125" cy="205" r="4.0" fill="#000000"/>
  <circle cx="135" cy="205" r="4.0" fill="#000000"/>
  <circle cx="145" cy="205" r="4.0" fill="#000000"/>
  <circle cx="185" cy="205" r="4.0" fill="#000000"/>
  <circle cx="195" cy="205" r="4.0" fill="#000000"/>
  <circle cx="215" cy="205" r="4.0" fill="#000000"/>
  <circle cx="235" cy="205" r="4.0" fill="#000000"/>
  <circle cx="255" cy="205" r="4.0" fill="#000000"/>
  <circle cx="275" cy="205" r="4.0" fill="#000000"/>
  <circle cx="295" cy="205" r="4.0" fill="#000000"/>
  <circle cx="305" cy="205" r="4.0" fill="#000000"/>
  <circle cx="45" cy="215" r="4.0" fill="#000000"/>
  <circle cx="65" cy="215" r="4.0" fill="#000000"/>
  <circle cx="75" cy="215" r="4.0" fill="#000000"/>
  <circle cx="115" cy="215" r="4.0" fill="#000000"/>
  <circle cx="125" cy="215" r="4.0" fill="#000000"/>
  <circle cx="145" cy="215" r="4.0" fill="#000000"/>
  <circle cx="155" cy="215" r="4.0" fill="#000000"/>
  <circle cx="205" cy="215" r="4.0" fill="#000000"/>
  <circle cx="215" cy="215" r="4.0" fill="#000000"/>
  <circle cx="225" cy="215" r="4.0" fill="#000000"/>
  <circle cx="235" cy="215" r="4.0" fill="#000000"/>
  <circle cx="255" cy="215" r="4.0" fill="#000000"/>
  <circle cx="265" cy="215" r="4.0" fill="#000000"/>
  <circle cx="275" cy="215" r="4.0" fill="#000000"/>
  <circle cx="285" cy="215" r="4.0" fill="#000000"/>
  <circle cx="305" cy="215" r="4.0" fill="#000000"/>
  <circle cx="325" cy="215" r="4.0" fill="#000000"/>
  <circle cx="45" cy="225" r="4.0" fill="#000000"/>
  <circle cx="65" cy="225" r="4.0" fill="#000000"/>
  <circle cx="105" cy="225" r="4.0" fill="#000000"/>
  <circle cx="125" cy="225" r="4.0" fill="#000000"/>
  <circle cx="165" cy="225" r="4.0" fill="#000000"/>
  <circle cx="195" cy="225" r="4.0" fill="#000000"/>
  <circle cx="205" cy="225" r="4.0" fill="#000000"/>
  <circle cx="215" cy="225" r="4.0" fill="#000000"/>
  <circle cx="245" cy="225" r="4.0" fill="#000000"/>
  <circle cx="265" cy="225" r="4.0" fill="#000000"/>
  <circle cx="275" cy="225" r="4.0" fill="#000000"/>
  <circle cx="285" cy="225" r="4.0" fill="#000000"/>
  <circle cx="305" cy="225" r="4.0" fill="#000000"/>
  <circle cx="45" cy="235" r="4.0" fill="#000000"/>
  <circle cx="75" cy="235" r="4.0" fill="#000000"/>
  <circle cx="85" cy="235" r="4.0" fill="#000000"/>
  <circle cx="125" cy="235" r="4.0" fill="#000000"/>
  <circle cx="145" cy="235" r="4.0" fill="#000000"/>
  <circle cx="185" cy="235" r="4.0" fill="#000000"/>
  <circle cx="245" cy="235" r="4.0" fill="#000000"/>
  <circle cx="255" cy="235" r="4.0" fill="#000000"/>
  <circle cx="265" cy="235" r="4.0" fill="#000000"/>
  <circle cx="315" cy="235" r="4.0" fill="#000000"/>
  <circle cx="45" cy="245" r="4.0" fill="#000000"/>
  <circle cx="65" cy="245" r="4.0" fill="#000000"/>
  <circle cx="75" cy="245" r="4.0" fill="#000000"/>
  <circle cx="85" cy="245" r="4.0" fill="#000000"/>
  <circle cx="105" cy="245" r="4.0" fill="#000000"/>
  <circle cx="165" cy="245" r="4.0" fill="#000000"/>
  <circle cx="195" cy="245" r="4.0" fill="#000000"/>
  <circle cx="215" cy="245" r="4.0" fill="#000000"/>
  <circle cx="235" cy="245" r="4.0" fill="#000000"/>
  <circle cx="245" cy="245" r="4.0" fill="#000000"/>
  <circle cx="255" cy="245" r="4.0" fill="#000000"/>
  <circle cx="265" cy="245" r="4.0" fill="#000000"/>
  <circle cx="275" cy="245" r="4.0" fill="#000000"/>
  <circle cx="285" cy="245" r="4.0" fill="#000000"/>
  <circle cx="305" cy="245" r="4.0" fill="#000000"/>
  <circle cx="315" cy="245" r="4.0" fill="#000000"/>
  <circle cx="325" cy="245" r="4.0" fill="#000000"/>
  <circle cx="125" cy="255" r="4.0" fill="#000000"/>
  <circle cx="145" cy="255" r="4.0" fill="#000000"/>
  <circle cx="165" cy="255" r="4.0" fill="#000000"/>
  <circle cx="175" cy="255" r="4.0" fill="#000000"/>
  <circle cx="185" cy="255" r="4.0" fill="#000000"/>
  <circle cx="205" cy="255" r="4.0" fill="#000000"/>
  <circle cx="225" cy="255" r="4.0" fill="#000000"/>
  <circle cx="245" cy="255" r="4.0" fill="#000000"/>
  <circle cx="285" cy="255" r="4.0" fill="#000000"/>
  <circle cx="295" cy="255" r="4.0" fill="#000000"/>
  <circle cx="305" cy="255" r="4.0" fill="#000000"/>
  <circle cx="315" cy="255" r="4.0" fill="#000000"/>
  <circle cx="325" cy="255" r="4.0" fill="#000000"/>
  <rect x="40" y="260" width="10" height="10" fill="#000000" rx="1.5" ry="1.5"/>
  <rect x="50" y="260" width="10" height="10" fill="#000000" rx="1.5" ry="1.5"/>
  <rect x="60" y="260" width="10" height="10" fill="#000000" rx="1.5" ry="1.5"/>
  <rect x="70" y="260" width="10" height="10" fill="#000000" rx="1.5" ry="1.5"/>
  <rect x="80" y="260" width="10" height="10" fill="#000000" rx="1.5" ry="1.5"/>
  <rect x="90" y="260" width="10" height="10" fill="#000000" rx="1.5" ry="1.5"/>
  <rect x="100" y="260" width="10" height="10" fill="#000000" rx="1.5" ry="1.5"/>
  <circle cx="175" cy="265" r="4.0" fill="#000000"/>
  <circle cx="185" cy="265" r="4.0" fill="#000000"/>
  <circle cx="195" cy="265" r="4.0" fill="#000000"/>
  <circle cx="205" cy="265" r="4.0" fill="#000000"/>
  <circle cx="225" cy="265" r="4.0" fill="#000000"/>
  <circle cx="235" cy="265" r="4.0" fill="#000000"/>
  <circle cx="245" cy="265" r="4.0" fill="#000000"/>
  <circle cx="265" cy="265" r="4.0" fill="#000000"/>
  <circle cx="285" cy="265" r="4.0" fill="#000000"/>
  <circle cx="295" cy="265" r="4.0" fill="#000000"/>
  <circle cx="305" cy="265" r="4.0" fill="#000000"/>
  <rect x="40" y="270" width="10" height="10" fill="#000000" rx="1.5" ry="1.5"/>
  <rect x="100" y="270" width="10" height="10" fill="#000000" rx="1.5" ry="1.5"/>
  <circle cx="125" cy="275" r="4.0" fill="#000000"/>
  <circle cx="135" cy="275" r="4.0" fill="#000000"/>
  <circle cx="155" cy="275" r="4.0" fill="#000000"/>
  <circle cx="175" cy="275" r="4.0" fill="#000000"/>
  <circle cx="235" cy="275" r="4.0" fill="#000000"/>
  <circle cx="245" cy="275" r="4.0" fill="#000000"/>
  <circle cx="285" cy="275" r="4.0" fill="#000000"/>
  <circle cx="325" cy="275" r="4.0" fill="#000000"/>
  <rect x="40" y="280" width="10" height="10" fill="#000000" rx="1.5" ry="1.5"/>
  <rect x="60" y="280" width="10" height="10" fill="#000000" rx="1.5" ry="1.5"/>
  <rect x="70" y="280" width="10" height="10" fill="#000000" rx="1.5" ry="1.5"/>
  <rect x="80" y="280" width="10" height="10" fill="#000000" rx="1.5" ry="1.5"/>
  <rect x="100" y="280" width="10" height="10" fill="#000000" rx="1.5" ry="1.5"/>
  <circle cx="125" cy="285" r="4.0" fill="#000000"/>
  <circle cx="145" cy="285" r="4.0" fill="#000000"/>
  <circle cx="185" cy="285" r="4.0" fill="#000000"/>
  <circle cx="195" cy="285" r="4.0" fill="#000000"/>
  <circle cx="205" cy="285" r="4.0" fill="#000000"/>
  <circle cx="215" cy="285" r="4.0" fill="#000000"/>
  <circle cx="245" cy="285" r="4.0" fill="#000000"/>
  <circle cx="255" cy="285" r="4.0" fill="#000000"/>
  <circle cx="265" cy="285" r="4.0" fill="#000000"/>
  <circle cx="275" cy="285" r="4.0" fill="#000000"/>
  <circle cx="285" cy="285" r="4.0" fill="#000000"/>
  <circle cx="305" cy="285" r="4.0" fill="#000000"/>
  <rect x="40" y="290" width="10" height="10" fill="#000000" rx="1.5" ry="1.5"/>
  <rect x="60" y="290" width="10" height="10" fill="#000000" rx="1.5" ry="1.5"/>
  <rect x="70" y="290" width="10" height="10" fill="#000000" rx="1.5" ry="1.5"/>
  <rect x="80" y="290" width="10" height="10" fill="#000000" rx="1.5" ry="1.5"/>
  <rect x="100" y="290" width="10" height="10" fill="#000000" rx="1.5" ry="1.5"/>
  <circle cx="125" cy="295" r="4.0" fill="#000000"/>
  <circle cx="145" cy="295" r="4.0" fill="#000000"/>
  <circle cx="155" cy="295" r="4.0" fill="#000000"/>
  <circle cx="165" cy="295" r="4.0" fill="#000000"/>
  <circle cx="195" cy="295" r="4.0" fill="#000000"/>
  <circle cx="205" cy="295" r="4.0" fill="#000000"/>
  <circle cx="235" cy="295" r="4.0" fill="#000000"/>
  <circle cx="245" cy="295" r="4.0" fill="#000000"/>
  <circle cx="295" cy="295" r="4.0" fill="#000000"/>
  <circle cx="305" cy="295" r="4.0" fill="#000000"/>
  <circle cx="315" cy="295" r="4.0" fill="#000000"/>
  <circle cx="325" cy="295" r="4.0" fill="#000000"/>
  <rect x="40" y="300" width="10" height="10" fill="#000000" rx="1.5" ry="1.5"/>
  <rect x="60" y="300" width="10" height="10" fill="#000000" rx="1.5" ry="1.5"/>
  <rect x="70" y="300" width="10" height="10" fill="#000000" rx="1.5" ry="1.5"/>
  <rect x="80" y="300" width="10" height="10" fill="#000000" rx="1.5" ry="1.5"/>
  <rect x="100" y="300" width="10" height="10" fill="#000000" rx="1.5" ry="1.5"/>
  <circle cx="125" cy="305" r="4.0" fill="#000000"/>
  <circle cx="145" cy="305" r="4.0" fill="#000000"/>
  <circle cx="155" cy="305" r="4.0" fill="#000000"/>
  <circle cx="165" cy="305" r="4.0" fill="#000000"/>
  <circle cx="175" cy="305" r="4.0" fill="#000000"/>
  <circle cx="185" cy="305" r="4.0" fill="#000000"/>
  <circle cx="195" cy="305" r="4.0" fill="#000000"/>
  <circle cx="205" cy="305" r="4.0" fill="#000000"/>
  <circle cx="235" cy="305" r="4.0" fill="#000000"/>
  <circle cx="245" cy="305" r="4.0" fill="#000000"/>
  <circle cx="255" cy="305" r="4.0" fill="#000000"/>
  <circle cx="265" cy="305" r="4.0" fill="#000000"/>
  <circle cx="275" cy="305" r="4.0" fill="#000000"/>
  <circle cx="285" cy="305" r="4.0" fill="#000000"/>
  <circle cx="295" cy="305" r="4.0" fill="#000000"/>
  <circle cx="305" cy="305" r="4.0" fill="#000000"/>
  <circle cx="315" cy="305" r="4.0" fill="#000000"/>
  <rect x="40" y="310" width="10" height="10" fill="#000000" rx="1.5" ry="1.5"/>
  <rect x="100" y="310" width="10" height="10" fill="#000000" rx="1.5" ry="1.5"/>
  <circle cx="135" cy="315" r="4.0" fill="#000000"/>
  <circle cx="145" cy="315" r="4.0" fill="#000000"/>
  <circle cx="185" cy="315" r="4.0" fill="#000000"/>
  <circle cx="205" cy="315" r="4.0" fill="#000000"/>
  <circle cx="225" cy="315" r="4.0" fill="#000000"/>
  <circle cx="245" cy="315" r="4.0" fill="#000000"/>
  <circle cx="255" cy="315" r="4.0" fill="#000000"/>
  <circle cx="275" cy="315" r="4.0" fill="#000000"/>
  <circle cx="295" cy="315" r="4.0" fill="#000000"/>
  <circle cx="315" cy="315" r="4.0" fill="#000000"/>
  <rect x="40" y="320" width="10" height="10" fill="#000000" rx="1.5" ry="1.5"/>
  <rect x="50" y="320" width="10" height="10" fill="#000000" rx="1.5" ry="1.5"/>
  <rect x="60" y="320" width="10" height="10" fill="#000000" rx="1.5" ry="1.5"/>
  <rect x="70" y="320" width="10" height="10" fill="#000000" rx="1.5" ry="1.5"/>
  <rect x="80" y="320" width="10" height="10" fill="#000000" rx="1.5" ry="1.5"/>
  <rect x="90" y="320" width="10" height="10" fill="#000000" rx="1.5" ry="1.5"/>
  <rect x="100" y="320" width="10" height="10" fill="#000000" rx="1.5" ry="1.5"/>
  <circle cx="125" cy="325" r="4.0" fill="#000000"/>
  <circle cx="135" cy="325" r="4.0" fill="#000000"/>
  <circle cx="155" cy="325" r="4.0" fill="#000000"/>
  <circle cx="185" cy="325" r="4.0" fill="#000000"/>
  <circle cx="215" cy="325" r="4.0" fill="#000000"/>
  <circle cx="225" cy="325" r="4.0" fill="#000000"/>
  <circle cx="235" cy="325" r="4.0" fill="#000000"/>
  <circle cx="265" cy="325" r="4.0" fill="#000000"/>
  <circle cx="275" cy="325" r="4.0" fill="#000000"/>
  <circle cx="285" cy="325" r="4.0" fill="#000000"/>
  <circle cx="305" cy="325" r="4.0" fill="#000000"/>
  <text x="185" y="390" text-anchor="middle" font-family="Arial, sans-serif" font-size="15.0" fill="#000000">Dot Style</text>
</svg>