<?xml version="1.0" encoding="UTF-8"?>
<svg xmlns="http://www.w3.org/2000/svg" version="1.1" viewBox="0 0 370 370" width="370" height="370">
  <rect width="370" height="370" fill="#FFFFFF"/>
  <rect x="40" y="40" width="10" height="10" fill="#000000" rx="1.5" ry="1.5"/>
  <rect x="50" y="40" width="10" height="10" fill="#000000" rx="1.5" ry="1.5"/>
  <rect x="60" y="40" width="10" height="10" fill="#000000" rx="1.5" ry="1.5"/>
  <rect x="70" y="40" width="10" height="10" fill="#000000" rx="1.5" ry="1.5"/>
  <rect x="80" y="40" width="10" height="10" fill="#000000" rx="1.5" ry="1.5"/>
  <rect x="90" y="40" width="10" height="10" fill="#000000" rx="1.5" ry="1.5"/>
  <rect x="100" y="40" width="10" height="10" fill="#000000" rx="1.5" ry="1.5"/>
  <rect x="140" y="40" width="10" height="10" fill="#000000" rx="3.0" ry="3.0"/>
  <rect x="180" y="40" width="10" height="10" fill="#000000" rx="3.0" ry="3.0"/>
  <rect x="190" y="40" width="10" height="10" fill="#000000" rx="3.0" ry="3.0"/>
  <rect x="200" y="40" width="10" height="10" fill="#000000" rx="3.0" ry="3.0"/>
  <rect x="210" y="40" width="10" height="10" fill="#000000" rx="3.0" ry="3.0"/>
  <rect x="230" y="40" width="10" height="10" fill="#000000" rx="3.0" ry="3.0"/>
  <rect x="240" y="40" width="10" height="10" fill="#000000" rx="3.0" ry="3.0"/>
  <rect x="260" y="40" width="10" height="10" fill="#000000" rx="1.5" ry="1.5"/>
  <rect x="270" y="40" width="10" height="10" fill="#000000" rx="1.5" ry="1.5"/>
  <rect x="280" y="40" width="10" height="10" fill="#000000" rx="1.5" ry="1.5"/>
  <rect x="290" y="40" width="10" height="10" fill="#000000" rx="1.5" ry="1.5"/>
  <rect x="300" y="40" width="10" height="10" fill="#000000" rx="1.5" ry="1.5"/>
  <rect x="310" y="40" width="10" height="10" fill="#000000" rx="1.5" ry="1.5"/>
  <rect x="320" y="40" width="10" height="10" fill="#000000" rx="1.5" ry="1.5"/>
  <rect x="40" y="50" width="10" height="10" fill="#000000" rx="1.5" ry="1.5"/>
  <rect x="100" y="50" width="10" height="10" fill="#000000" rx="1.5" ry="1.5"/>
  <rect x="140" y="50" width="10" height="10" fill="#000000" rx="3.0" ry="3.0"/>
  <rect x="160" y="50" width="10" height="10" fill="#000000" rx="3.0" ry="3.0"/>
  <rect x="190" y="50" width="10" height="10" fill="#000000" rx="3.0" ry="3.0"/>
  <rect x="200" y="50" width="10" height="10" fill="#000000" rx="3.0" ry="3.0"/>
  <rect x="210" y="50" width="10" height="10" fill="#000000" rx="3.0" ry="3.0"/>
  <rect x="220" y="50" width="10" height="10" fill="#000000" rx="3.0" ry="3.0"/>
  <rect x="240" y="50" width="10" height="10" fill="#000000" rx="3.0" ry="3.0"/>
  <rect x="260" y="50" width="10" height="10" fill="#000000" rx="1.5" ry="1.5"/>
  <rect x="320" y="50" width="10" height="10" fill="#000000" rx="1.5" ry="1.5"/>
  <rect x="40" y="60" width="10" height="10" fill="#000000" rx="1.5" ry="1.5"/>
  <rect x="60" y="60" width="10" height="10" fill="#000000" rx="1.5" ry="1.5"/>
  <rect x="70" y="60" width="10" height="10" fill="#000000" rx="1.5" ry="1.5"/>
  <rect x="80" y="60" width="10" height="10" fill="#000000" rx="1.5" ry="1.5"/>
  <rect x="100" y="60" width="10" height="10" fill="#000000" rx="1.5" ry="1.5"/>
  <rect x="120" y="60" width="10" height="10" fill="#000000" rx="3.0" ry="3.0"/>
  <rect x="130" y="60" width="10" height="10" fill="#000000" rx="3.0" ry="3.0"/>
  <rect x="150" y="60" width="10" height="10" fill="#000000" rx="3.0" ry="3.0"/>
  <rect x="160" y="60" width="10" height="10" fill="#000000" rx="3.0" ry="3.0"/>
  <rect x="190" y="60" width="10" height="10" fill="#000000" rx="3.0" ry="3.0"/>
  <rect x="200" y="60" width="10" height="10" fill="#000000" rx="3.0" ry="3.0"/>
  <rect x="220" y="60" width="10" height="10" fill="#000000" rx="3.0" ry="3.0"/>
  <rect x="260" y="60" width="10" height="10" fill="#000000" rx="1.5" ry="1.5"/>
  <rect x="280" y="60" width="10" height="10" fill="#000000" rx="1.5" ry="1.5"/>
  <rect x="290" y="60" width="10" height="10" fill="#000000" rx="1.5" ry="1.5"/>
  <rect x="300" y="60" width="10" height="10" fill="#000000" rx="1.5" ry="1.5"/>
  <rect x="320" y="60" width="10" height="10" fill="#000000" rx="1.5" ry="1.5"/>
  <rect x="40" y="70" width="10" height="10" fill="#000000" rx="1.5" ry="1.5"/>
  <rect x="60" y="70" width="10" height="10" fill="#000000" rx="1.5" ry="1.5"/>
  <rect x="70" y="70" width="10" height="10" fill="#000000" rx="1.5" ry="1.5"/>
  <rect x="80" y="70" width="10" height="10" fill="#000000" rx="1.5" ry="1.5"/>
  <rect x="100" y="70" width="10" height="10" fill="#000000" rx="1.5" ry="1.5"/>
  <rect x="120" y="70" width="10" height="10" fill="#000000" rx="3.0" ry="3.0"/>
  <rect x="130" y="70" width="10" height="10" fill="#000000" rx="3.0" ry="3.0"/>
  <rect x="180" y="70" width="10" height="10" fill="#000000" rx="3.0" ry="3.0"/>
  <rect x="190" y="70" width="10" height="10" fill="#000000" rx="3.0" ry="3.0"/>
  <rect x="210" y="70" width="10" height="10" fill="#000000" rx="3.0" ry="3.0"/>
  <rect x="260" y="70" width="10" height="10" fill="#000000" rx="1.5" ry="1.5"/>
  <rect x="280" y="70" width="10" height="10" fill="#000000" rx="1.5" ry="1.5"/>
  <rect x="290" y="70" width="10" height="10" fill="#000000" rx="1.5" ry="1.5"/>
  <rect x="300" y="70" width="10" height="10" fill="#000000" rx="1.5" ry="1.5"/>
  <rect x="320" y="70" width="10" height="10" fill="#000000" rx="1.5" ry="1.5"/>
  <rect x="40" y="80" width="10" height="10" fill="#000000" rx="1.5" ry="1.5"/>
  <rect x="60" y="80" width="10" height="10" fill="#000000" rx="1.5" ry="1.5"/>
  <rect x="70" y="80" width="10" height="10" fill="#000000" rx="1.5" ry="1.5"/>
  <rect x="80" y="80" width="10" height="10" fill="#000000" rx="1.5" ry="1.5"/>
  <rect x="100" y="80" width="10" height="10" fill="#000000" rx="1.5" ry="1.5"/>
  <rect x="120" y="80" width="10" height="10" fill="#000000" rx="3.0" ry="3.0"/>
  <rect x="140" y="80" width="10" height="10" fill="#000000" rx="3.0" ry="3.0"/>
  <rect x="150" y="80" width="10" height="10" fill="#000000" rx="3.0" ry="3.0"/>
  <rect x="170" y="80" width="10" height="10" fill="#000000" rx="3.0" ry="3.0"/>
  <rect x="200" y="80" width="10" height="10" fill="#000000" rx="3.0" ry="3.0"/>
  <rect x="210" y="80" width="10" height="10" fill="#000000" rx="3.0" ry="3.0"/>
  <rect x="230" y="80" width="10" height="10" fill="#000000" rx="3.0" ry="3.0"/>
  <rect x="240" y="80" width="10" height="10" fill="#000000" rx="3.0" ry="3.0"/>
  <rect x="260" y="80" width="10" height="10" fill="#000000" rx="1.5" ry="1.5"/>
  <rect x="280" y="80" width="10" height="10" fill="#000000" rx="1.5" ry="1.5"/>
  <rect x="290" y="80" width="10" height="10" fill="#000000" rx="1.5" ry="1.5"/>
  <rect x="300" y="80" width="10" height="10" fill="#000000" rx="1.5" ry="1.5"/>
  <rect x="320" y="80" width="10" height="10" fill="#000000" rx="1.5" ry="1.5"/>
  <rect x="40" y="90" width="10" height="10" fill="#000000" rx="1.5" ry="1.5"/>
  <rect x="100" y="90" width="10" height="10" fill="#000000" rx="1.5" ry="1.5"/>
  <rect x="120" y="90" width="10" height="10" fill="#000000" rx="3.0" ry="3.0"/>
  <rect x="140" y="90" width="10" height="10" fill="#000000" rx="3.0" ry="3.0"/>
  <rect x="160" y="90" width="10" height="10" fill="#000000" rx="3.0" ry="3.0"/>
  <rect x="190" y="90" width="10" height="10" fill="#000000" rx="3.0" ry="3.0"/>
  <rect x="200" y="90" width="10" height="10" fill="#000000" rx="3.0" ry="3.0"/>
  <rect x="220" y="90" width="10" height="10" fill="#000000" rx="3.0" ry="3.0"/>
  <rect x="260" y="90" width="10" height="10" fill="#000000" rx="1.5" ry="1.5"/>
  <rect x="320" y="90" width="10" height="10" fill="#000000" rx="1.5" ry="1.5"/>
  <rect x="40" y="100" width="10" height="10" fill="#000000" rx="1.5" ry="1.5"/>
  <rect x="50" y="100" width="10" height="10" fill="#000000" rx="1.5" ry="1.5"/>
  <rect x="60" y="100" width="10" height="10" fill="#000000" rx="1.5" ry="1.5"/>
  <rect x="70" y="100" width="10" height="10" fill="#000000" rx="1.5" ry="1.5"/>
  <rect x="80" y="100" width="10" height="10" fill="#000000" rx="1.5" ry="1.5"/>
  <rect x="90" y="100" width="10" height="10" fill="#000000" rx="1.5" ry="1.5"/>
  <rect x="100" y="100" width="10" height="10" fill="#000000" rx="1.5" ry="1.5"/>
  <rect x="120" y="100" width="10" height="10" fill="#000000" rx="3.0" ry="3.0"/>
  <rect x="140" y="100" width="10" height="10" fill="#000000" rx="3.0" ry="3.0"/>
  <rect x="160" y="100" width="10" height="10" fill="#000000" rx="3.0" ry="3.0"/>
  <rect x="180" y="100" width="10" height="10" fill="#000000" rx="3.0" ry="3.0"/>
  <rect x="200" y="100" width="10" height="10" fill="#000000" rx="3.0" ry="3.0"/>
  <rect x="220" y="100" width="10" height="10" fill="#000000" rx="3.0" ry="3.0"/>
  <rect x="240" y="100" width="10" height="10" fill="#000000" rx="3.0" ry="3.0"/>
  <rect x="260" y="100" width="10" height="10" fill="#000000" rx="1.5" ry="1.5"/>
  <rect x="270" y="100" width="10" height="10" fill="#000000" rx="1.5" ry="1.5"/>
  <rect x="280" y="100" width="10" height="10" fill="#000000" rx="1.5" ry="1.5"/>
  <rect x="290" y="100" width="10" height="10" fill="#000000" rx="1.5" ry="1.5"/>
  <rect x="300" y="100" width="10" height="10" fill="#000000" rx="1.5" ry="1.5"/>
  <rect x="310" y="100" width="10" height="10" fill="#000000" rx="1.5" ry="1.5"/>
  <rect x="320" y="100" width="10" height="10" fill="#000000" rx="1.5" ry="1.5"/>
  <rect x="120" y="110" width="10" height="10" fill="#000000" rx="3.0" ry="3.0"/>
  <rect x="190" y="110" width="10" height="10" fill="#000000" rx="3.0" ry="3.0"/>
  <rect x="200" y="110" width="10" height="10" fill="#000000" rx="3.0" ry="3.0"/>
  <rect x="230" y="110" width="10" height="10" fill="#000000" rx="3.0" ry="3.0"/>
  <rect x="40" y="120" width="10" height="10" fill="#000000" rx="3.0" ry="3.0"/>
  <rect x="60" y="120" width="10" height="10" fill="#000000" rx="3.0" ry="3.0"/>
  <rect x="70" y="120" width="10" height="10" fill="#000000" rx="3.0" ry="3.0"/>
  <rect x="80" y="120" width="10" height="10" fill="#000000" rx="3.0" ry="3.0"/>
  <rect x="90" y="120" width="10" height="10" fill="#000000" rx="3.0" ry="3.0"/>
  <rect x="100" y="120" width="10" height="10" fill="#000000" rx="3.0" ry="3.0"/>
  <rect x="140" y="120" width="10" height="10" fill="#000000" rx="3.0" ry="3.0"/>
  <rect x="160" y="120" width="10" height="10" fill="#000000" rx="3.0" ry="3.0"/>
  <rect x="180" y="120" width="10" height="10" fill="#000000" rx="3.0" ry="3.0"/>
  <rect x="210" y="120" width="10" height="10" fill="#000000" rx="3.0" ry="3.0"/>
  <rect x="220" y="120" width="10" height="10" fill="#000000" rx="3.0" ry="3.0"/>
  <rect x="240" y="120" width="10" height="10" fill="#000000" rx="3.0" ry="3.0"/>
  <rect x="260" y="120" width="10" height="10" fill="#000000" rx="3.0" ry="3.0"/>
  <rect x="270" y="120" width="10" height="10" fill="#000000" rx="3.0" ry="3.0"/>
  <rect x="280" y="120" width="10" height="10" fill="#000000" rx="3.0" ry="3.0"/>
  <rect x="290" y="120" width="10" height="10" fill="#000000" rx="3.0" ry="3.0"/>
  <rect x="300" y="120" width="10" height="10" fill="#000000" rx="3.0" ry="3.0"/>
  <rect x="50" y="130" width="10" height="10" fill="#000000" rx="3.0" ry="3.0"/>
  <rect x="60" y="130" width="10" height="10" fill="#000000" rx="3.0" ry="3.0"/>
  <rect x="90" y="130" width="10" height="10" fill="#000000" rx="3.0" ry="3.0"/>
  <rect x="120" y="130" width="10" height="10" fill="#000000" rx="3.0" ry="3.0"/>
  <rect x="130" y="130" width="10" height="10" fill="#000000" rx="3.0" ry="3.0"/>
  <rect x="160" y="130" width="10" height="10" fill="#000000" rx="3.0" ry="3.0"/>
  <rect x="180" y="130" width="10" height="10" fill="#000000" rx="3.0" ry="3.0"/>
  <rect x="190" y="130" width="10" height="10" fill="#000000" rx="3.0" ry="3.0"/>
  <rect x="200" y="130" width="10" height="10" fill="#000000" rx="3.0" ry="3.0"/>
  <rect x="210" y="130" width="10" height="10" fill="#000000" rx="3.0" ry="3.0"/>
  <rect x="220" y="130" width="10" height="10" fill="#000000" rx="3.0" ry="3.0"/>
  <rect x="230" y="130" width="10" height="10" fill="#000000" rx="3.0" ry="3.0"/>
  <rect x="240" y="130" width="10" height="10" fill="#000000" rx="3.0" ry="3.0"/>
  <rect x="260" y="130" width="10" height="10" fill="#000000" rx="3.0" ry="3.0"/>
  <rect x="270" y="130" width="10" height="10" fill="#000000" rx="3.0" ry="3.0"/>
  <rect x="280" y="130" width="10" height="10" fill="#000000" rx="3.0" ry="3.0"/>
  <rect x="320" y="130" width="10" height="10" fill="#000000" rx="3.0" ry="3.0"/>
  <rect x="40" y="140" width="10" height="10" fill="#000000" rx="3.0" ry="3.0"/>
  <rect x="50" y="140" width="10" height="10" fill="#000000" rx="3.0" ry="3.0"/>
  <rect x="60" y="140" width="10" height="10" fill="#000000" rx="3.0" ry="3.0"/>
  <rect x="70" y="140" width="10" height="10" fill="#000000" rx="3.0" ry="3.0"/>
  <rect x="90" y="140" width="10" height="10" fill="#000000" rx="3.0" ry="3.0"/>
  <rect x="100" y="140" width="10" height="10" fill="#000000" rx="3.0" ry="3.0"/>
  <rect x="130" y="140" width="10" height="10" fill="#000000" rx="3.0" ry="3.0"/>
  <rect x="140" y="140" width="10" height="10" fill="#000000" rx="3.0" ry="3.0"/>
  <rect x="150" y="140" width="10" height="10" fill="#000000" rx="3.0" ry="3.0"/>
  <rect x="160" y="140" width="10" height="10" fill="#000000" rx="3.0" ry="3.0"/>
  <rect x="190" y="140" width="10" height="10" fill="#000000" rx="3.0" ry="3.0"/>
  <rect x="240" y="140" width="10" height="10" fill="#000000" rx="3.0" ry="3.0"/>
  <rect x="280" y="140" width="10" height="10" fill="#000000" rx="3.0" ry="3.0"/>
  <rect x="70" y="150" width="10" height="10" fill="#000000" rx="3.0" ry="3.0"/>
  <rect x="80" y="150" width="10" height="10" fill="#000000" rx="3.0" ry="3.0"/>
  <rect x="90" y="150" width="10" height="10" fill="#000000" rx="3.0" ry="3.0"/>
  <rect x="110" y="150" width="10" height="10" fill="#000000" rx="3.0" ry="3.0"/>
  <rect x="140" y="150" width="10" height="10" fill="#000000" rx="3.0" ry="3.0"/>
  <rect x="150" y="150" width="10" height="10" fill="#000000" rx="3.0" ry="3.0"/>
  <rect x="200" y="150" width="10" height="10" fill="#000000" rx="3.0" ry="3.0"/>
  <rect x="230" y="150" width="10" height="10" fill="#000000" rx="3.0" ry="3.0"/>
  <rect x="290" y="150" width="10" height="10" fill="#000000" rx="3.0" ry="3.0"/>
  <rect x="310" y="150" width="10" height="10" fill="#000000" rx="3.0" ry="3.0"/>
  <rect x="40" y="160" width="10" height="10" fill="#000000" rx="3.0" ry="3.0"/>
  <rect x="50" y="160" width="10" height="10" fill="#000000" rx="3.0" ry="3.0"/>
  <rect x="70" y="160" width="10" height="10" fill="#000000" rx="3.0" ry="3.0"/>
  <rect x="100" y="160" width="10" height="10" fill="#000000" rx="3.0" ry="3.0"/>
  <rect x="110" y="160" width="10" height="10" fill="#000000" rx="3.0" ry="3.0"/>
  <rect x="120" y="160" width="10" height="10" fill="#000000" rx="3.0" ry="3.0"/>
  <rect x="140" y="160" width="10" height="10" fill="#000000" rx="3.0" ry="3.0"/>
  <rect x="210" y="160" width="10" height="10" fill="#000000" rx="3.0" ry="3.0"/>
  <rect x="290" y="160" width="10" height="10" fill="#000000" rx="3.0" ry="3.0"/>
  <rect x="300" y="160" width="10" height="10" fill="#000000" rx="3.0" ry="3.0"/>
  <rect x="40" y="170" width="10" height="10" fill="#000000" rx="3.0" ry="3.0"/>
  <rect x="50" y="170" width="10" height="10" fill="#000000" rx="3.0" ry="3.0"/>
  <rect x="70" y="170" width="10" height="10" fill="#000000" rx="3.0" ry="3.0"/>
  <rect x="80" y="170" width="10" height="10" fill="#000000" rx="3.0" ry="3.0"/>
  <rect x="110" y="170" width="10" height="10" fill="#000000" rx="3.0" ry="3.0"/>
  <rect x="130" y="170" width="10" height="10" fill="#000000" rx="3.0" ry="3.0"/>
  <rect x="140" y="170" width="10" height="10" fill="#000000" rx="3.0" ry="3.0"/>
  <rect x="150" y="170" width="10" height="10" fill="#000000" rx="3.0" ry="3.0"/>
  <rect x="170" y="170" width="10" height="10" fill="#000000" rx="3.0" ry="3.0"/>
  <rect x="200" y="170" width="10" height="10" fill="#000000" rx="3.0" ry="3.0"/>
  <rect x="220" y="170" width="10" height="10" fill="#000000" rx="3.0" ry="3.0"/>
  <rect x="230" y="170" width="10" height="10" fill="#000000" rx="3.0" ry="3.0"/>
  <rect x="240" y="170" width="10" height="10" fill="#000000" rx="3.0" ry="3.0"/>
  <rect x="250" y="170" width="10" height="10" fill="#000000" rx="3.0" ry="3.0"/>
  <rect x="260" y="170" width="10" height="10" fill="#000000" rx="3.0" ry="3.0"/>
  <rect x="270" y="170" width="10" height="10" fill="#000000" rx="3.0" ry="3.0"/>
  <rect x="280" y="170" width="10" height="10" fill="#000000" rx="3.0" ry="3.0"/>
  <rect x="320" y="170" width="10" height="10" fill="#000000" rx="3.0" ry="3.0"/>
  <rect x="50" y="180" width="10" height="10" fill="#000000" rx="3.0" ry="3.0"/>
  <rect x="60" y="180" width="10" height="10" fill="#000000" rx="3.0" ry="3.0"/>
  <rect x="90" y="180" width="10" height="10" fill="#000000" rx="3.0" ry="3.0"/>
  <rect x="100" y="180" width="10" height="10" fill="#000000" rx="3.0" ry="3.0"/>
  <rect x="110" y="180" width="10" height="10" fill="#000000" rx="3.0" ry="3.0"/>
  <rect x="140" y="180" width="10" height="10" fill="#000000" rx="3.0" ry="3.0"/>
  <rect x="160" y="180" width="10" height="10" fill="#000000" rx="3.0" ry="3.0"/>
  <rect x="170" y="180" width="10" height="10" fill="#000000" rx="3.0" ry="3.0"/>
  <rect x="180" y="180" width="10" height="10" fill="#000000" rx="3.0" ry="3.0"/>
  <rect x="190" y="180" width="10" height="10" fill="#000000" rx="3.0" ry="3.0"/>
  <rect x="200" y="180" width="10" height="10" fill="#000000" rx="3.0" ry="3.0"/>
  <rect x="210" y="180" width="10" height="10" fill="#000000" rx="3.0" ry="3.0"/>
  <rect x="240" y="180" width="10" height="10" fill="#000000" rx="3.0" ry="3.0"/>
  <rect x="250" y="180" width="10" height="10" fill="#000000" rx="3.0" ry="3.0"/>
  <rect x="280" y="180" width="10" height="10" fill="#000000" rx="3.0" ry="3.0"/>
  <rect x="290" y="180" width="10" height="10" fill="#000000" rx="3.0" ry="3.0"/>
  <rect x="300" y="180" width="10" height="10" fill="#000000" rx="3.0" ry="3.0"/>
  <rect x="50" y="190" width="10" height="10" fill="#000000" rx="3.0" ry="3.0"/>
  <rect x="70" y="190" width="10" height="10" fill="#000000" rx="3.0" ry="3.0"/>
  <rect x="140" y="190" width="10" height="10" fill="#000000" rx="3.0" ry="3.0"/>
  <rect x="170" y="190" width="10" height="10" fill="#000000" rx="3.0" ry="3.0"/>
  <rect x="190" y="190" width="10" height="10" fill="#000000" rx="3.0" ry="3.0"/>
  <rect x="230" y="190" width="10" height="10" fill="#000000" rx="3.0" ry="3.0"/>
  <rect x="240" y="190" width="10" height="10" fill="#000000" rx="3.0" ry="3.0"/>
  <rect x="250" y="190" width="10" height="10" fill="#000000" rx="3.0" ry="3.0"/>
  <rect x="260" y="190" width="10" height="10" fill="#000000" rx="3.0" ry="3.0"/>
  <rect x="270" y="190" width="10" height="10" fill="#000000" rx="3.0" ry="3.0"/>
  <rect x="280" y="190" width="10" height="10" fill="#000000" rx="3.0" ry="3.0"/>
  <rect x="310" y="190" width="10" height="10" fill="#000000" rx="3.0" ry="3.0"/>
  <rect x="40" y="200" width="10" height="10" fill="#000000" rx="3.0" ry="3.0"/>
  <rect x="60" y="200" width="10" height="10" fill="#000000" rx="3.0" ry="3.0"/>
  <rect x="90" y="200" width="10" height="10" fill="#000000" rx="3.0" ry="3.0"/>
  <rect x="100" y="200" width="10" height="10" fill="#000000" rx="3.0" ry="3.0"/>
  <rect x="110" y="200" width="10" height="10" fill="#000000" rx="3.0" ry="3.0"/>
  <rect x="120" y="200" width="10" height="10" fill="#000000" rx="3.0" ry="3.0"/>
  <rect x="130" y="200" width="10" height="10" fill="#000000" rx="3.0" ry="3.0"/>
  <rect x="140" y="200" width="10" height="10" fill="#000000" rx="3.0" ry="3.0"/>
  <rect x="180" y="200" width="10" height="10" fill="#000000" rx="3.0" ry="3.0"/>
  <rect x="190" y="200" width="10" height="10" fill="#000000" rx="3.0" ry="3.0"/>
  <rect x="210" y="200" width="10" height="10" fill="#000000" rx="3.0" ry="3.0"/>
  <rect x="230" y="200" width="10" height="10" fill="#000000" rx="3.0" ry="3.0"/>
  <rect x="250" y="200" width="10" height="10" fill="#000000" rx="3.0" ry="3.0"/>
  <rect x="270" y="200" width="10" height="10" fill="#000000" rx="3.0" ry="3.0"/>
  <rect x="290" y="200" width="10" height="10" fill="#000000" rx="3.0" ry="3.0"/>
  <rect x="300" y="200" width="10" height="10" fill="#000000" rx="3.0" ry="3.0"/>
  <rect x="40" y="210" width="10" height="10" fill="#000000" rx="3.0" ry="3.0"/>
  <rect x="60" y="210" width="10" height="10" fill="#000000" rx="3.0" ry="3.0"/>
  <rect x="70" y="210" width="10" height="10" fill="#000000" rx="3.0" ry="3.0"/>
  <rect x="110" y="210" width="10" height="10" fill="#000000" rx="3.0" ry="3.0"/>
  <rect x="120" y="210" width="10" height="10" fill="#000000" rx="3.0" ry="3.0"/>
  <rect x="140" y="210" width="10" height="10" fill="#000000" rx="3.0" ry="3.0"/>
  <rect x="150" y="210" width="10" height="10" fill="#000000" rx="3.0" ry="3.0"/>
  <rect x="200" y="210" width="10" height="10" fill="#000000" rx="3.0" ry="3.0"/>
  <rect x="210" y="210" width="10" height="10" fill="#000000" rx="3.0" ry="3.0"/>
  <rect x="220" y="210" width="10" height="10" fill="#000000" rx="3.0" ry="3.0"/>
  <rect x="230" y="210" width="10" height="10" fill="#000000" rx="3.0" ry="3.0"/>
  <rect x="250" y="210" width="10" height="10" fill="#000000" rx="3.0" ry="3.0"/>
  <rect x="260" y="210" width="10" height="10" fill="#000000" rx="3.0" ry="3.0"/>
  <rect x="270" y="210" width="10" height="10" fill="#000000" rx="3.0" ry="3.0"/>
  <rect x="280" y="210" width="10" height="10" fill="#000000" rx="3.0" ry="3.0"/>
  <rect x="300" y="210" width="10" height="10" fill="#000000" rx="3.0" ry="3.0"/>
  <rect x="320" y="210" width="10" height="10" fill="#000000" rx="3.0" ry="3.0"/>
  <rect x="40" y="220" width="10" height="10" fill="#000000" rx="3.0" ry="3.0"/>
  <rect x="60" y="220" width="10" height="10" fill="#000000" rx="3.0" ry="3.0"/>
  <rect x="100" y="220" width="10" height="10" fill="#000000" rx="3.0" ry="3.0"/>
  <rect x="120" y="220" width="10" height="10" fill="#000000" rx="3.0" ry="3.0"/>
  <rect x="160" y="220" width="10" height="10" fill="#000000" rx="3.0" ry="3.0"/>
  <rect x="190" y="220" width="10" height="10" fill="#000000" rx="3.0" ry="3.0"/>
  <rect x="200" y="220" width="10" height="10" fill="#000000" rx="3.0" ry="3.0"/>
  <rect x="210" y="220" width="10" height="10" fill="#000000" rx="3.0" ry="3.0"/>
  <rect x="240" y="220" width="10" height="10" fill="#000000" rx="3.0" ry="3.0"/>
  <rect x="260" y="220" width="10" height="10" fill="#000000" rx="3.0" ry="3.0"/>
  <rect x="270" y="220" width="10" height="10" fill="#000000" rx="3.0" ry="3.0"/>
  <rect x="280" y="220" width="10" height="10" fill="#000000" rx="3.0" ry="3.0"/>
  <rect x="300" y="220" width="10" height="10" fill="#000000" rx="3.0" ry="3.0"/>
  <rect x="40" y="230" width="10" height="10" fill="#000000" rx="3.0" ry="3.0"/>
  <rect x="70" y="230" width="10" height="10" fill="#000000" rx="3.0" ry="3.0"/>
  <rect x="80" y="230" width="10" height="10" fill="#000000" rx="3.0" ry="3.0"/>
  <rect x="120" y="230" width="10" height="10" fill="#000000" rx="3.0" ry="3.0"/>
  <rect x="140" y="230" width="10" height="10" fill="#000000" rx="3.0" ry="3.0"/>
  <rect x="180" y="230" width="10" height="10" fill="#000000" rx="3.0" ry="3.0"/>
  <rect x="240" y="230" width="10" height="10" fill="#000000" rx="3.0" ry="3.0"/>
  <rect x="250" y="230" width="10" height="10" fill="#000000" rx="3.0" ry="3.0"/>
  <rect x="260" y="230" width="10" height="10" fill="#000000" rx="3.0" ry="3.0"/>
  <rect x="310" y="230" width="10" height="10" fill="#000000" rx="3.0" ry="3.0"/>
  <rect x="40" y="240" width="10" height="10" fill="#000000" rx="3.0" ry="3.0"/>
  <rect x="60" y="240" width="10" height="10" fill="#000000" rx="3.0" ry="3.0"/>
  <rect x="70" y="240" width="10" height="10" fill="#000000" rx="3.0" ry="3.0"/>
  <rect x="80" y="240" width="10" height="10" fill="#000000" rx="3.0" ry="3.0"/>
  <rect x="100" y="240" width="10" height="10" fill="#000000" rx="3.0" ry="3.0"/>
  <rect x="160" y="240" width="10" height="10" fill="#000000" rx="3.0" ry="3.0"/>
  <rect x="190" y="240" width="10" height="10" fill="#000000" rx="3.0" ry="3.0"/>
  <rect x="210" y="240" width="10" height="10" fill="#000000" rx="3.0" ry="3.0"/>
  <rect x="230" y="240" width="10" height="10" fill="#000000" rx="3.0" ry="3.0"/>
  <rect x="240" y="240" width="10" height="10" fill="#000000" rx="3.0" ry="3.0"/>
  <rect x="250" y="240" width="10" height="10" fill="#000000" rx="3.0" ry="3.0"/>
  <rect x="260" y="240" width="10" height="10" fill="#000000" rx="3.0" ry="3.0"/>
  <rect x="270" y="240" width="10" height="10" fill="#000000" rx="3.0" ry="3.0"/>
  <rect x="280" y="240" width="10" height="10" fill="#000000" rx="3.0" ry="3.0"/>
  <rect x="300" y="240" width="10" height="10" fill="#000000" rx="3.0" ry="3.0"/>
  <rect x="310" y="240" width="10" height="10" fill="#000000" rx="3.0" ry="3.0"/>
  <rect x="320" y="240" width="10" height="10" fill="#000000" rx="3.0" ry="3.0"/>
  <rect x="120" y="250" width="10" height="10" fill="#000000" rx="3.0" ry="3.0"/>
  <rect x="140" y="250" width="10" height="10" fill="#000000" rx="3.0" ry="3.0"/>
  <rect x="160" y="250" width="10" height="10" fill="#000000" rx="3.0" ry="3.0"/>
  <rect x="170" y="250" width="10" height="10" fill="#000000" rx="3.0" ry="3.0"/>
  <rect x="180" y="250" width="10" height="10" fill="#000000" rx="3.0" ry="3.0"/>
  <rect x="200" y="250" width="10" height="10" fill="#000000" rx="3.0" ry="3.0"/>
  <rect x="220" y="250" width="10" height="10" fill="#000000" rx="3.0" ry="3.0"/>
  <rect x="240" y="250" width="10" height="10" fill="#000000" rx="3.0" ry="3.0"/>
  <rect x="280" y="250" width="10" height="10" fill="#000000" rx="3.0" ry="3.0"/>
  <rect x="290" y="250" width="10" height="10" fill="#000000" rx="3.0" ry="3.0"/>
  <rect x="300" y="250" width="10" height="10" fill="#000000" rx="3.0" ry="3.0"/>
  <rect x="310" y="250" width="10" height="10" fill="#000000" rx="3.0" ry="3.0"/>
  <rect x="320" y="250" width="10" height="10" fill="#000000" rx="3.0" ry="3.0"/>
  <rect x="40" y="260" width="10" height="10" fill="#000000" rx="1.5" ry="1.5"/>
  <rect x="50" y="260" width="10" height="10" fill="#000000" rx="1.5" ry="1.5"/>
  <rect x="60" y="260" width="10" height="10" fill="#000000" rx="1.5" ry="1.5"/>
  <rect x="70" y="260" width="10" height="10" fill="#000000" rx="1.5" ry="1.5"/>
  <rect x="80" y="260" width="10" height="10" fill="#000000" rx="1.5" ry="1.5"/>
  <rect x="90" y="260" width="10" height="10" fill="#000000" rx="1.5" ry="1.5"/>
  <rect x="100" y="260" width="10" height="10" fill="#000000" rx="1.5" ry="1.5"/>
  <rect x="170" y="260" width="10" height="10" fill="#000000" rx="3.0" ry="3.0"/>
  <rect x="180" y="260" width="10" height="10" fill="#000000" rx="3.0" ry="3.0"/>
  <rect x="190" y="260" width="10" height="10" fill="#000000" rx="3.0" ry="3.0"/>
  <rect x="200" y="260" width="10" height="10" fill="#000000" rx="3.0" ry="3.0"/>
  <rect x="220" y="260" width="10" height="10" fill="#000000" rx="3.0" ry="3.0"/>
  <rect x="230" y="260" width="10" height="10" fill="#000000" rx="3.0" ry="3.0"/>
  <rect x="240" y="260" width="10" height="10" fill="#000000" rx="3.0" ry="3.0"/>
  <rect x="260" y="260" width="10" height="10" fill="#000000" rx="3.0" ry="3.0"/>
  <rect x="280" y="260" width="10" height="10" fill="#000000" rx="3.0" ry="3.0"/>
  <rect x="290" y="260" width="10" height="10" fill="#000000" rx="3.0" ry="3.0"/>
  <rect x="300" y="260" width="10" height="10" fill="#000000" rx="3.0" ry="3.0"/>
  <rect x="40" y="270" width="10" height="10" fill="#000000" rx="1.5" ry="1.5"/>
  <rect x="100" y="270" width="10" height="10" fill="#000000" rx="1.5" ry="1.5"/>
  <rect x="120" y="270" width="10" height="10" fill="#000000" rx="3.0" ry="3.0"/>
  <rect x="130" y="270" width="10" height="10" fill="#000000" rx="3.0" ry="3.0"/>
  <rect x="150" y="270" width="10" height="10" fill="#000000" rx="3.0" ry="3.0"/>
  <rect x="170" y="270" width="10" height="10" fill="#000000" rx="3.0" ry="3.0"/>
  <rect x="230" y="270" width="10" height="10" fill="#000000" rx="3.0" ry="3.0"/>
  <rect x="240" y="270" width="10" height="10" fill="#000000" rx="3.0" ry="3.0"/>
  <rect x="280" y="270" width="10" height="10" fill="#000000" rx="3.0" ry="3.0"/>
  <rect x="320" y="270" width="10" height="10" fill="#000000" rx="3.0" ry="3.0"/>
  <rect x="40" y="280" width="10" height="10" fill="#000000" rx="1.5" ry="1.5"/>
  <rect x="60" y="280" width="10" height="10" fill="#000000" rx="1.5" ry="1.5"/>
  <rect x="70" y="280" width="10" height="10" fill="#000000" rx="1.5" ry="1.5"/>
  <rect x="80" y="280" width="10" height="10" fill="#000000" rx="1.5" ry="1.5"/>
  <rect x="100" y="280" width="10" height="10" fill="#000000" rx="1.5" ry="1.5"/>
  <rect x="120" y="280" width="10" height="10" fill="#000000" rx="3.0" ry="3.0"/>
  <rect x="140" y="280" width="10" height="10" fill="#000000" rx="3.0" ry="3.0"/>
  <rect x="180" y="280" width="10" height="10" fill="#000000" rx="3.0" ry="3.0"/>
  <rect x="190" y="280" width="10" height="10" fill="#000000" rx="3.0" ry="3.0"/>
  <rect x="200" y="280" width="10" height="10" fill="#000000" rx="3.0" ry="3.0"/>
  <rect x="210" y="280" width="10" height="10" fill="#000000" rx="3.0" ry="3.0"/>
  <rect x="240" y="280" width="10" height="10" fill="#000000" rx="3.0" ry="3.0"/>
  <rect x="250" y="280" width="10" height="10" fill="#000000" rx="3.0" ry="3.0"/>
  <rect x="260" y="280" width="10" height="10" fill="#000000" rx="3.0" ry="3.0"/>
  <rect x="270" y="280" width="10" height="10" fill="#000000" rx="3.0" ry="3.0"/>
  <rect x="280" y="280" width="10" height="10" fill="#000000" rx="3.0" ry="3.0"/>
  <rect x="300" y="280" width="10" height="10" fill="#000000" rx="3.0" ry="3.0"/>
  <rect x="40" y="290" width="10" height="10" fill="#000000" rx="1.5" ry="1.5"/>
  <rect x="60" y="290" width="10" height="10" fill="#000000" rx="1.5" ry="1.5"/>
  <rect x="70" y="290" width="10" height="10" fill="#000000" rx="1.5" ry="1.5"/>
  <rect x="80" y="290" width="10" height="10" fill="#000000" rx="1.5" ry="1.5"/>
  <rect x="100" y="290" width="10" height="10" fill="#000000" rx="1.5" ry="1.5"/>
  <rect x="120" y="290" width="10" height="10" fill="#000000" rx="3.0" ry="3.0"/>
  <rect x="140" y="290" width="10" height="10" fill="#000000" rx="3.0" ry="3.0"/>
  <rect x="150" y="290" width="10" height="10" fill="#000000" rx="3.0" ry="3.0"/>
  <rect x="160" y="290" width="10" height="10" fill="#000000" rx="3.0" ry="3.0"/>
  <rect x="190" y="290" width="10" height="10" fill="#000000" rx="3.0" ry="3.0"/>
  <rect x="200" y="290" width="10" height="10" fill="#000000" rx="3.0" ry="3.0"/>
  <rect x="230" y="290" width="10" height="10" fill="#000000" rx="3.0" ry="3.0"/>
  <rect x="240" y="290" width="10" height="10" fill="#000000" rx="3.0" ry="3.0"/>
  <rect x="290" y="290" width="10" height="10" fill="#000000" rx="3.0" ry="3.0"/>
  <rect x="300" y="290" width="10" height="10" fill="#000000" rx="3.0" ry="3.0"/>
  <rect x="310" y="290" width="10" height="10" fill="#000000" rx="3.0" ry="3.0"/>
  <rect x="320" y="290" width="10" height="10" fill="#000000" rx="3.0" ry="3.0"/>
  <rect x="40" y="300" width="10" height="10" fill="#000000" rx="1.5" ry="1.5"/>
  <rect x="60" y="300" width="10" height="10" fill="#000000" rx="1.5" ry="1.5"/>
  <rect x="70" y="300" width="10" height="10" fill="#000000" rx="1.5" ry="1.5"/>
  <rect x="80" y="300" width="10" height="10" fill="#000000" rx="1.5" ry="1.5"/>
  <rect x="100" y="300" width="10" height="10" fill="#000000" rx="1.5" ry="1.5"/>
  <rect x="120" y="300" width="10" height="10" fill="#000000" rx="3.0" ry="3.0"/>
  <rect x="140" y="300" width="10" height="10" fill="#000000" rx="3.0" ry="3.0"/>
  <rect x="150" y="300" width="10" height="10" fill="#000000" rx="3.0" ry="3.0"/>
  <rect x="160" y="300" width="10" height="10" fill="#000000" rx="3.0" ry="3.0"/>
  <rect x="170" y="300" width="10" height="10" fill="#000000" rx="3.0" ry="3.0"/>
  <rect x="180" y="300" width="10" height="10" fill="#000000" rx="3.0" ry="3.0"/>
  <rect x="190" y="300" width="10" height="10" fill="#000000" rx="3.0" ry="3.0"/>
  <rect x="200" y="300" width="10" height="10" fill="#000000" rx="3.0" ry="3.0"/>
  <rect x="230" y="300" width="10" height="10" fill="#000000" rx="3.0" ry="3.0"/>
  <rect x="240" y="300" width="10" height="10" fill="#000000" rx="3.0" ry="3.0"/>
  <rect x="250" y="300" width="10" height="10" fill="#000000" rx="3.0" ry="3.0"/>
  <rect x="260" y="300" width="10" height="10" fill="#000000" rx="3.0" ry="3.0"/>
  <rect x="270" y="300" width="10" height="10" fill="#000000" rx="3.0" ry="3.0"/>
  <rect x="280" y="300" width="10" height="10" fill="#000000" rx="3.0" ry="3.0"/>
  <rect x="290" y="300" width="10" height="10" fill="#000000" rx="3.0" ry="3.0"/>
  <rect x="300" y="300" width="10" height="10" fill="#000000" rx="3.0" ry="3.0"/>
  <rect x="310" y="300" width="10" height="10" fill="#000000" rx="3.0" ry="3.0"/>
  <rect x="40" y="310" width="10" height="10" fill="#000000" rx="1.5" ry="1.5"/>
  <rect x="100" y="310" width="10" height="10" fill="#000000" rx="1.5" ry="1.5"/>
  <rect x="130" y="310" width="10" height="10" fill="#000000" rx="3.0" ry="3.0"/>
  <rect x="140" y="310" width="10" height="10" fill="#000000" rx="3.0" ry="3.0"/>
  <rect x="180" y="310" width="10" height="10" fill="#000000" rx="3.0" ry="3.0"/>
  <rect x="200" y="310" width="10" height="10" fill="#000000" rx="3.0" ry="3.0"/>
  <rect x="220" y="310" width="10" height="10" fill="#000000" rx="3.0" ry="3.0"/>
  <rect x="240" y="310" width="10" height="10" fill="#000000" rx="3.0" ry="3.0"/>
  <rect x="250" y="310" width="10" height="10" fill="#000000" rx="3.0" ry="3.0"/>
  <rect x="270" y="310" width="10" height="10" fill="#000000" rx="3.0" ry="3.0"/>
  <rect x="290" y="310" width="10" height="10" fill="#000000" rx="3.0" ry="3.0"/>
  <rect x="310" y="310" width="10" height="10" fill="#000000" rx="3.0" ry="3.0"/>
  <rect x="40" y="320" width="10" height="10" fill="#000000" rx="1.5" ry="1.5"/>
  <rect x="50" y="320" width="10" height="10" fill="#000000" rx="1.5" ry="1.5"/>
  <rect x="60" y="320" width="10" height="10" fill="#000000" rx="1.5" ry="1.5"/>
  <rect x="70" y="320" width="10" height="10" fill="#000000" rx="1.5" ry="1.5"/>
  <rect x="80" y="320" width="10" height="10" fill="#000000" rx="1.5" ry="1.5"/>
  <rect x="90" y="320" width="10" height="10" fill="#000000" rx="1.5" ry="1.5"/>
  <rect x="100" y="320" width="10" height="10" fill="#000000" rx="1.5" ry="1.5"/>
  <rect x="120" y="320" width="10" height="10" fill="#000000" rx="3.0" ry="3.0"/>
  <rect x="130" y="320" width="10" height="10" fill="#000000" rx="3.0" ry="3.0"/>
  <rect x="150" y="320" width="10" height="10" fill="#000000" rx="3.0" ry="3.0"/>
  <rect x="180" y="320" width="10" height="10" fill="#000000" rx="3.0" ry="3.0"/>
  <rect x="210" y="320" width="10" height="10" fill="#000000" rx="3.0" ry="3.0"/>
  <rect x="220" y="320" width="10" height="10" fill="#000000" rx="3.0" ry="3.0"/>
  <rect x="230" y="320" width="10" height="10" fill="#000000" rx="3.0" ry="3.0"/>
  <rect x="260" y="320" width="10" height="10" fill="#000000" rx="3.0" ry="3.0"/>
  <rect x="270" y="320" width="10" height="10" fill="#000000" rx="3.0" ry="3.0"/>
  <rect x="280" y="320" width="10" height="10" fill="#000000" rx="3.0" ry="3.0"/>
  <rect x="300" y="320" width="10" height="10" fill="#000000" rx="3.0" ry="3.0"/>
  <text x="185" y="390" text-anchor="middle" font-family="Arial, sans-serif" font-size="15.0" fill="#000000">Rounded Style</text>
</svg>