<?xml version="1.0" encoding="UTF-8"?>
<svg xmlns="http://www.w3.org/2000/svg" version="1.1" viewBox="0 0 810 710" width="810" height="710">
  <rect width="810" height="710" fill="#FFFFFF"/>
  <path fill="#000000" d="M70 0h10v640h-10zM90 0h10v640h-10zM130 0h10v640h-10zM150 0h20v640h-20zM180 0h10v640h-10zM200 0h40v640h-40zM250 0h40v640h-40zM300 0h10v640h-10zM320 0h20v640h-20zM350 0h30v640h-30zM390 0h10v640h-10zM410 0h10v640h-10zM430 0h10v640h-10zM460 0h30v640h-30zM500 0h30v640h-30zM550 0h10v640h-10zM570 0h10v640h-10zM610 0h10v640h-10zM640 0h10v640h-10zM660 0h30v640h-30zM710 0h10v640h-10zM730 0h10v640h-10zM70 640h10v50h-10zM90 640h10v50h-10zM390 640h10v50h-10zM410 640h10v50h-10zM710 640h10v50h-10zM730 640h10v50h-10z"/>
  <text x="400" y="705" text-anchor="middle" font-family="Arial, sans-serif" font-size="15.0" fill="#000000">96385074</text>
</svg>