<?xml version="1.0" encoding="UTF-8"?>
<svg xmlns="http://www.w3.org/2000/svg" version="1.1" viewBox="0 0 1620 520" width="1620" height="520">
  <rect width="1620" height="520" fill="#FFFFFF"/>
  <path fill="#000000" d="M100 0h10v500h-10zM130 0h10v500h-10zM150 0h20v500h-20zM180 0h20v500h-20zM210 0h10v500h-10zM230 0h10v500h-10zM250 0h20v500h-20zM280 0h20v500h-20zM310 0h10v500h-10zM340 0h10v500h-10zM360 0h20v500h-20zM390 0h10v500h-10zM410 0h10v500h-10zM440 0h10v500h-10zM460 0h20v500h-20zM490 0h20v500h-20zM520 0h10v500h-10zM540 0h10v500h-10zM560 0h20v500h-20zM600 0h10v500h-10zM620 0h10v500h-10zM640 0h10v500h-10zM660 0h20v500h-20zM690 0h20v500h-20zM730 0h10v500h-10zM750 0h10v500h-10zM780 0h10v500h-10zM800 0h10v500h-10zM820 0h20v500h-20zM850 0h20v500h-20zM880 0h10v500h-10zM900 0h10v500h-10zM930 0h20v500h-20zM960 0h10v500h-10zM980 0h20v500h-20zM1010 0h10v500h-10zM1030 0h10v500h-10zM1060 0h20v500h-20zM1090 0h10v500h-10zM1110 0h20v500h-20zM1140 0h10v500h-10zM1160 0h10v500h-10zM1190 0h10v500h-10zM1210 0h20v500h-20zM1240 0h20v500h-20zM1270 0h20v500h-20zM1300 0h10v500h-10zM1330 0h10v500h-10zM1350 0h10v500h-10zM1370 0h20v500h-20zM1400 0h10v500h-10zM1430 0h10v500h-10zM1450 0h20v500h-20zM1480 0h20v500h-20zM1510 0h10v500h-10z"/>
  <text x="810" y="515" text-anchor="middle" font-family="Arial, sans-serif" font-size="15.0" fill="#000000">PART-4471</text>
</svg>